<?xml version="1.0" encoding="UTF-8"?>
<svg id="Layer_1" xmlns="http://www.w3.org/2000/svg" version="1.1" viewBox="0 0 157.2 150.8">
  <!-- Generator: Adobe Illustrator 29.4.0, SVG Export Plug-In . SVG Version: 2.1.0 Build 152)  -->
  <g>
    <path d="M58.8,30.3c3.3-.8,6.4-1.7,9.6-2.2,14.6-2.5,27.7,1.2,39.4,10,10.2,7.8,16.2,18.2,18.6,30.7.2,1.3.5,2.5.6,3.8,0,.3,0,.8.6,1.1.3.2.7.2,1,.2,6.1,0,12.1,0,18.2,0s1.1,0,1.7,0c3.4.4,4.8,3.8,2.9,6.7-2,3.1-4,5.8-6,8.9-12.9,19.5-25.8,39.1-38.8,58.6-1.3,1.9-2.9,2.6-4.5,2-2.5-.9-3.3-3.4-1.8-5.7,1.7-2.7,3.6-5.4,5.3-8.1,11.9-18,23.8-35.9,35.7-53.9.2-.3.4-.6.6-1h-14.5c-1.7,16.6-8.9,30-23.1,39.1-14.2,9.2-29.3,10.4-45.4,5,0,.6,0,1,0,1.5v17.9c0,1.1,0,2.4-.4,3.3-.7,1.4-1.4,2-3.3,2s-3.1-.9-3.4-2.3c-.2-.8-.2-1.8-.2-2.6,0-7,0-14,0-21,0-.9.2-1.8-.2-2.3-.3-.6-1.1-.8-1.8-1.2-9.4-6-16.3-14-20.2-24.5-1.7-4.5-2.8-9.2-3.2-14-.1-1-.5-1.2-1.3-1.2H6.5c-1.3,0-2.6-.2-3.6-1.2-1.3-1.3-1.3-3.2,0-5.1,4.5-6.7,9-13.4,13.5-20.1,5.9-8.7,11.8-17.4,17.6-26.1S45.6,11.3,51.5,2.6c.7-1.1,1.5-2,2.9-2.1,2.6-.3,4.1.9,4.4,3.5.2,2.2.2,4.4.2,6.6v18.1c-.2.8-.2,1.2-.2,1.6ZM119.6,73.9c0-1.1-.2-2.1-.4-3.1-2.7-14.9-11.2-25.4-24.6-32-11.3-5.6-22.8-5.2-34.4-.9-1.3.5-1.7,1.1-1.7,2.5,0,10.8,0,21.7,0,32.5s0,.8,0,1.2c20.4-.2,40.6-.2,60.9-.2ZM58.7,81.5c0,.3,0,.5,0,.7,0,11.4,0,22.9,0,34.3,0,.2,0,.8.3,1.2.3.4.9.6,1,.6,7.2,3,14.6,4.2,22.3,2.9,18.2-2.9,30.1-13.4,36-30.7,1-2.9,1.4-5.9,1.5-9h-60.9ZM51.3,16.1c-13.1,19.4-26,38.5-39,57.8h13.5c.1-.6.2-1.1.3-1.7,1-8.6,4-16.4,9-23.5,4-5.6,8.9-10.2,14.7-13.8,1.2-.7,1.6-1.5,1.6-2.9,0-3.3,0-6.6,0-10,0-1.8,0-3.6,0-5.9ZM51.2,81.6h-18.1c1.3,13.3,7.4,23.8,18.1,31.9,0-10.8,0-21.3,0-31.9ZM51.1,73.9v-31.1c-10.4,8-16.5,18.1-18,31.1h18Z"/>
    <path d="M107.2,97.7c0,6.2-4.4,10.6-10.6,10.6s-10.6-4.5-10.6-10.6,4.5-10.7,10.6-10.7,10.6,4.6,10.6,10.7ZM100.7,97.7c0-2.3-1.8-4.2-4.1-4.2s-4.1,1.8-4.1,4.1,1.7,4.2,4.1,4.2c2.3,0,4.1-1.8,4.1-4.1Z"/>
  </g>
  <path d="M152.6,139.7c0,6.2-4.4,10.6-10.6,10.6s-10.6-4.5-10.6-10.6,4.6-10.7,10.6-10.7,10.6,4.6,10.6,10.7ZM146.1,139.7c0-2.3-1.8-4.2-4.1-4.2s-4.1,1.8-4.1,4.1,1.7,4.2,4.1,4.2c2.4-.1,4.2-1.8,4.1-4.1Z"/>
</svg>